<?xml version="1.0" encoding="UTF-8"?>
<svg id="Layer_1" data-name="Layer 1" xmlns="http://www.w3.org/2000/svg" viewBox="0 0 143.79 141.36">
  <defs>
    <style>
      .cls-1 {
        fill: #ebc28e;
      }

      .cls-1, .cls-2, .cls-3 {
        stroke-width: 0px;
      }

      .cls-2 {
        fill: #ffeeda;
      }

      .cls-3 {
        fill: #190602;
      }
    </style>
  </defs>
  <path class="cls-2" d="m133.55,95.98l.02-83.38c-.13-6.98-5.66-12.6-12.66-12.6H33.89C15.12.32,0,15.65,0,34.52c0,6.37,1.7,11.8,4.32,16.56,2.19,3.97,5.65,7.71,9.1,10.52.94.77.5.48,3.45,2.29,4.07,2.5,8.74,3.74,8.74,3.74l-.04,49.86c.1,2.36.36,4.62.94,6.73,1.95,7.01,6.8,12.42,13.44,15.04,2.77,1.09,5.91,1.83,9.23,1.85l69.5.25c13.86,0,25.1-11.25,25.1-25.13,0-8.31-4.03-15.68-10.24-20.25h.01Z"/>
  <path class="cls-1" d="m135.23,116.78c-.29,8.9-7.58,16.03-16.54,16.03l-47.84-.19c3.82-4.41,6.12-10.15,6.12-16.39,0-9.82-5.85-16.57-5.85-16.57h47.57c9.14,0,16.55,7.42,16.55,16.57v.54h0Z"/>
  <path class="cls-3" d="m17.93,54.5c-5.49-5.2-9.38-11.94-9.38-19.98v-.85c.45-13.66,11.7-24.65,25.34-25.09h87.02c2.28.08,4.11,1.71,4.11,4.02v73.61c2.01.37,2.97.61,4.9,1.31,1.5.55,3.65,1.76,3.65,1.76V12.61C133.44,5.63,127.91,0,120.91,0H33.89C15.12.32,0,15.65,0,34.52c0,10.96,4.99,20.29,13.17,26.87.55.44,1.09,1.01,2.55,1,2.56,0,4.36-2.02,4.26-4.25-.09-1.84-.86-2.51-2.05-3.64Z"/>
  <path class="cls-3" d="m118.69,91.1H50.43c-4.58.04-8.29,3.77-8.29,8.36v9.79c.13,4.53,3.99,8.42,8.56,8.42h5.07v-8.42h-5.07v-9.58h2.77c8.61,0,14.95,8.02,14.95,16.57,0,7.58-6.9,17.29-18.49,16.52-10.29-.69-15.81-9.83-15.81-16.52V33.05c0-3.76-3.05-6.81-6.81-6.81h-6.8v8.49h5.06v81.5c-.26,16.57,11.81,24.93,24.37,24.93l68.75.2c13.86,0,25.1-11.25,25.1-25.13s-11.24-25.13-25.1-25.13Zm16.54,25.68c-.29,8.9-7.58,16.03-16.54,16.03l-47.84-.19c3.82-4.41,6.12-10.15,6.12-16.39,0-9.82-5.85-16.57-5.85-16.57h47.57c9.14,0,16.55,7.42,16.55,16.57v.54h0Z"/>
  <path class="cls-3" d="m48.87,27.77h51.45c2.34,0,4.24,1.9,4.24,4.24h0c0,2.34-1.9,4.24-4.24,4.24h-51.45v-8.49h0Z"/>
  <path class="cls-3" d="m48.87,67.84h51.45c2.34,0,4.24,1.9,4.24,4.24h0c0,2.34-1.9,4.24-4.24,4.24h-51.45v-8.49h0Z"/>
  <path class="cls-3" d="m48.87,47.81h60.5c2.34,0,4.24,1.9,4.24,4.24h0c0,2.34-1.9,4.24-4.24,4.24h-60.5v-8.49h0Z"/>
</svg>